<?xml version="1.0" standalone="no"?>
<!DOCTYPE svg PUBLIC "-//W3C//DTD SVG 20010904//EN"
 "http://www.w3.org/TR/2001/REC-SVG-20010904/DTD/svg10.dtd">
<svg version="1.0" xmlns="http://www.w3.org/2000/svg"
 width="1200.000000pt" height="1200.000000pt" viewBox="0 0 1200.000000 1200.000000"
 preserveAspectRatio="xMidYMid meet">
<metadata>
Created by potrace 1.14, written by Peter Selinger 2001-2017
</metadata>
<g transform="translate(0.000000,1200.000000) scale(0.100000,-0.100000)"
fill="#000000" stroke="none">
<path d="M0 6000 l0 -6000 6000 0 6000 0 0 6000 0 6000 -6000 0 -6000 0 0
-6000z m5176 2238 c15 -29 30 -54 35 -56 5 -2 9 -14 9 -27 0 -21 -8 -25 -68
-39 -264 -60 -577 -191 -820 -345 -120 -75 -332 -233 -372 -277 l-25 -27 55
29 c30 16 57 32 58 37 2 4 9 7 15 7 11 0 49 18 187 85 25 12 68 31 95 40 28
10 55 22 60 26 40 29 344 132 575 194 352 95 869 135 1360 105 385 -24 759
-105 1120 -242 58 -22 133 -53 166 -69 34 -16 65 -29 69 -29 4 0 86 -38 182
-85 97 -47 178 -83 180 -81 2 2 -13 17 -33 32 -21 16 -49 40 -63 52 -15 13
-60 49 -101 80 -227 172 -488 305 -795 405 -108 35 -238 70 -262 70 -24 0 -21
27 10 89 18 35 33 65 34 67 4 7 104 1 173 -10 378 -60 822 -244 1183 -492 90
-61 122 -99 177 -209 13 -27 27 -48 32 -48 4 0 8 -7 8 -15 0 -8 22 -57 49
-110 27 -52 59 -121 71 -152 12 -32 25 -62 29 -68 5 -5 21 -41 36 -80 15 -38
33 -83 40 -100 44 -101 174 -492 211 -635 14 -52 28 -104 33 -115 20 -47 99
-417 145 -680 56 -318 124 -948 107 -997 -7 -19 -220 -238 -231 -238 -4 0 -21
-12 -38 -27 -41 -37 -48 -43 -123 -97 -35 -25 -69 -50 -76 -56 -7 -5 -15 -10
-18 -10 -3 0 -41 -23 -86 -50 -238 -150 -571 -273 -929 -344 -96 -19 -332 -41
-352 -34 -9 4 -62 69 -119 145 -57 76 -107 140 -111 141 -21 9 -6 40 25 51 17
7 55 22 82 33 28 11 73 29 101 39 83 31 311 156 434 237 63 42 117 78 120 82
3 3 37 30 75 60 104 81 309 269 302 277 -2 2 -58 -32 -123 -75 -111 -74 -186
-117 -359 -205 -65 -33 -95 -46 -243 -107 -246 -100 -632 -192 -924 -220 -62
-6 -138 -15 -168 -20 -70 -11 -673 -10 -765 1 -38 5 -131 15 -205 24 -178 20
-283 40 -470 87 -143 36 -343 100 -415 133 -16 7 -52 22 -80 33 -166 66 -377
179 -562 303 -40 27 -73 47 -73 45 0 -6 171 -171 225 -218 94 -81 218 -169
405 -285 112 -70 445 -223 486 -223 6 0 17 -7 24 -15 11 -13 9 -20 -9 -38 -11
-13 -42 -53 -68 -88 -155 -213 -142 -199 -194 -199 -119 0 -321 34 -544 91
-301 77 -658 236 -827 370 -20 16 -40 29 -43 29 -7 0 -102 73 -170 130 -16 14
-76 70 -132 125 -121 118 -113 78 -83 411 38 414 71 631 170 1104 33 163 115
463 179 660 125 387 277 738 434 1003 50 85 56 90 162 161 300 200 626 347
940 425 50 12 106 27 125 32 19 5 82 16 140 23 58 8 108 14 112 15 4 1 20 -23
34 -51z"/>
<path d="M4975 6263 c-70 -15 -194 -90 -239 -144 -111 -133 -170 -322 -147
-474 42 -282 221 -473 461 -492 127 -9 258 46 356 149 55 58 109 153 135 239
19 62 21 87 16 198 -6 142 -19 191 -78 289 -98 161 -237 243 -406 241 -43 -1
-87 -3 -98 -6z"/>
<path d="M6805 6256 c-131 -44 -231 -132 -295 -261 -56 -113 -73 -196 -67
-320 6 -106 15 -139 68 -250 32 -66 143 -195 168 -195 5 0 16 -6 23 -13 23
-22 131 -58 193 -64 72 -7 147 8 220 42 60 29 127 79 118 89 -3 3 -1 6 6 6 27
0 104 111 139 200 115 292 -28 656 -298 758 -51 20 -226 25 -275 8z"/>
</g>
</svg>
